<svg width="24" height="24" viewBox="0 0 24 24" fill="none" xmlns="http://www.w3.org/2000/svg">
<path d="M11.25 0.75C10.875 0.75 10.5381 0.9375 10.3125 1.23779L9.1875 3H4.875C4.23779 3 3.75 3.48779 3.75 4.125V6.375C3.75 7.01221 4.23779 7.5 4.875 7.5H4.91162L6.22412 20.0625C6.33691 21.0381 7.125 21.75 8.09912 21.75H17.4009C18.375 21.75 19.1631 21.0381 19.2759 20.0625L20.5884 7.5H20.625C21.2622 7.5 21.75 7.01221 21.75 6.375V4.125C21.75 3.48779 21.2622 3 20.625 3H16.3125L15.1509 1.23779C14.9634 0.9375 14.5884 0.75 14.2134 0.75H11.25ZM11.2866 1.5H14.25C14.3628 1.5 14.4756 1.57471 14.5503 1.64941L15.4116 3H10.0884L10.9497 1.64941C11.0244 1.57471 11.1372 1.5 11.2866 1.5ZM4.875 3.75H20.625C20.8506 3.75 21 3.89941 21 4.125V6.375C21 6.60059 20.8506 6.75 20.625 6.75H4.875C4.64941 6.75 4.5 6.60059 4.5 6.375V4.125C4.5 3.89941 4.64941 3.75 4.875 3.75ZM6 4.5C5.77441 4.5 5.625 4.64941 5.625 4.875V5.625C5.625 5.85059 5.77441 6 6 6C6.22559 6 6.375 5.85059 6.375 5.625V4.875C6.375 4.64941 6.22559 4.5 6 4.5ZM7.875 4.5C7.64941 4.5 7.5 4.64941 7.5 4.875V5.625C7.5 5.85059 7.64941 6 7.875 6C8.10059 6 8.25 5.85059 8.25 5.625V4.875C8.25 4.64941 8.10059 4.5 7.875 4.5ZM9.75 4.5C9.52441 4.5 9.375 4.64941 9.375 4.875V5.625C9.375 5.85059 9.52441 6 9.75 6C9.97559 6 10.125 5.85059 10.125 5.625V4.875C10.125 4.64941 9.97559 4.5 9.75 4.5ZM11.625 4.5C11.3994 4.5 11.25 4.64941 11.25 4.875V5.625C11.25 5.85059 11.3994 6 11.625 6C11.8506 6 12 5.85059 12 5.625V4.875C12 4.64941 11.8506 4.5 11.625 4.5ZM13.875 4.5C13.6494 4.5 13.5 4.64941 13.5 4.875V5.625C13.5 5.85059 13.6494 6 13.875 6C14.1006 6 14.25 5.85059 14.25 5.625V4.875C14.25 4.64941 14.1006 4.5 13.875 4.5ZM15.75 4.5C15.5244 4.5 15.375 4.64941 15.375 4.875V5.625C15.375 5.85059 15.5244 6 15.75 6C15.9756 6 16.125 5.85059 16.125 5.625V4.875C16.125 4.64941 15.9756 4.5 15.75 4.5ZM17.625 4.5C17.3994 4.5 17.25 4.64941 17.25 4.875V5.625C17.25 5.85059 17.3994 6 17.625 6C17.8506 6 18 5.85059 18 5.625V4.875C18 4.64941 17.8506 4.5 17.625 4.5ZM19.5 4.5C19.2744 4.5 19.125 4.64941 19.125 4.875V5.625C19.125 5.85059 19.2744 6 19.5 6C19.7256 6 19.875 5.85059 19.875 5.625V4.875C19.875 4.64941 19.7256 4.5 19.5 4.5ZM5.66162 7.5H19.8384L18.5259 19.9878C18.4497 20.5503 18 21 17.4009 21H8.09912C7.53662 21 7.05029 20.5503 6.97412 19.9878L5.66162 7.5ZM12.75 9.375C12.5244 9.375 12.375 9.52441 12.375 9.75V17.25C12.375 17.4756 12.5244 17.625 12.75 17.625C12.9756 17.625 13.125 17.4756 13.125 17.25V9.75C13.125 9.52441 12.9756 9.375 12.75 9.375ZM9.375 9.41162C9.14941 9.41162 9 9.59912 9.03662 9.78662L9.41162 17.2866C9.375 17.4741 9.5625 17.625 9.75 17.625C9.97559 17.625 10.125 17.4375 10.125 17.25L9.75 9.75C9.75 9.52441 9.5625 9.375 9.375 9.41162ZM16.1616 9.41162C15.9375 9.41162 15.7866 9.5625 15.7866 9.75L15.4116 17.25C15.375 17.4375 15.5244 17.625 15.75 17.625C15.9756 17.625 16.125 17.4741 16.125 17.2866L16.5 9.78662C16.5 9.5625 16.3491 9.41162 16.1616 9.41162ZM8.625 19.5C8.39941 19.5 8.25 19.6494 8.25 19.875C8.25 20.1006 8.39941 20.25 8.625 20.25H13.875C14.1006 20.25 14.25 20.1006 14.25 19.875C14.25 19.6494 14.1006 19.5 13.875 19.5H8.625ZM15.375 19.5C15.1494 19.5 15 19.6494 15 19.875C15 20.1006 15.1494 20.25 15.375 20.25H16.875C17.1006 20.25 17.25 20.1006 17.25 19.875C17.25 19.6494 17.1006 19.5 16.875 19.5H15.375Z" fill="#E31616"/>
</svg>
