<svg width="24" height="24" viewBox="0 0 24 24" fill="none" xmlns="http://www.w3.org/2000/svg">
<path d="M18.0366 1.29492C17.6484 1.29492 17.2602 1.43555 16.9761 1.71973L15.3867 3.31055C15.0937 3.01758 14.6177 3.01758 14.3262 3.31055L12.2051 5.43164C12.063 5.57373 11.9839 5.7627 11.9839 5.96338C11.9839 6.1626 12.063 6.35156 12.2051 6.49219L12.2226 6.51123L2.06834 16.6494C1.87937 16.8384 1.76512 17.0889 1.74314 17.3555L1.48973 20.5034L1.22605 22.3491C1.20848 22.4663 1.24803 22.5835 1.33299 22.6685C1.4033 22.7388 1.49852 22.7769 1.59666 22.7769C1.6157 22.7769 1.63328 22.7769 1.65086 22.7739L3.4951 22.5117L6.66209 22.2773C6.93162 22.2583 7.18357 22.1426 7.374 21.9521L17.5283 11.8125C17.6675 11.9429 17.8462 12.0161 18.0381 12.0161C18.2387 12.0161 18.4262 11.9385 18.5683 11.7964L20.6894 9.67529C20.9824 9.38232 20.9824 8.90771 20.6894 8.61475L22.2817 7.02393C22.5644 6.73975 22.7197 6.36328 22.7197 5.96191C22.7197 5.56201 22.5644 5.18408 22.2803 4.90137L19.0986 1.71973C18.8159 1.43555 18.4262 1.29492 18.0366 1.29492ZM18.0366 2.0376C18.2314 2.0376 18.4262 2.10791 18.5683 2.25L21.75 5.43164C21.8921 5.57373 21.9697 5.76123 21.9697 5.96191C21.9697 6.1626 21.8921 6.35156 21.75 6.49219L20.1592 8.08447L15.9155 3.84082L17.5078 2.25C17.6484 2.10791 17.8432 2.0376 18.0366 2.0376ZM14.855 3.84082L15.1216 4.10596L19.894 8.87842L20.1592 9.14502L19.6289 9.67383C19.4824 9.52734 19.2451 9.52734 19.0986 9.67383L18.5683 10.2056C18.4219 10.3521 18.4219 10.5894 18.5683 10.7358L18.0381 11.2661L12.7339 5.96191L13.2641 5.43164C13.3374 5.50488 13.4326 5.5415 13.5293 5.5415C13.626 5.5415 13.7212 5.50488 13.7944 5.43164L14.3262 4.90137C14.4726 4.75488 14.4726 4.51758 14.3262 4.37109L14.855 3.84082ZM15.3867 5.58691C15.29 5.58691 15.1948 5.62354 15.1216 5.69678L14.5898 6.22705C14.4433 6.37354 14.4433 6.61084 14.5898 6.75732C14.6631 6.83057 14.7597 6.86719 14.855 6.86719C14.9516 6.86719 15.0483 6.83057 15.1216 6.75732L15.6504 6.22705C15.7983 6.08057 15.7983 5.84326 15.6504 5.69678C15.5771 5.62354 15.4819 5.58691 15.3867 5.58691ZM16.7109 6.91406C16.6157 6.91406 16.5205 6.94922 16.4472 7.02393L15.9155 7.55273C15.769 7.70068 15.769 7.93652 15.9155 8.08447C15.9887 8.15625 16.0854 8.19287 16.1821 8.19287C16.2773 8.19287 16.374 8.15625 16.4472 8.08447L16.9761 7.55273C17.124 7.40625 17.124 7.17041 16.9761 7.02393C16.9028 6.94922 16.8076 6.91406 16.7109 6.91406ZM12.7544 7.0415L16.9966 11.2852L7.13523 21.1304L6.77781 19.3433L12.999 13.1221C13.1455 12.9756 13.1455 12.7383 12.999 12.5918C12.8525 12.4453 12.6167 12.4453 12.4687 12.5918L6.24607 18.8145L5.36277 18.6372L5.18553 17.7524L10.3476 12.5918C10.4956 12.4438 10.4956 12.208 10.3476 12.0601C10.2012 11.9136 9.96531 11.9136 9.81883 12.0601L4.65672 17.2222L2.90769 16.8735L12.7544 7.0415ZM18.0381 8.23828C17.9414 8.23828 17.8462 8.2749 17.7729 8.34961L17.2427 8.87842C17.0962 9.02637 17.0962 9.26221 17.2427 9.41016C17.3159 9.48193 17.4111 9.52002 17.5078 9.52002C17.6045 9.52002 17.6997 9.48193 17.7729 9.41016L18.3032 8.87842C18.4497 8.73193 18.4497 8.49609 18.3032 8.34961C18.23 8.2749 18.1347 8.23828 18.0381 8.23828ZM12.2051 9.83057C12.1084 9.83057 12.0132 9.86719 11.9399 9.93896L10.8794 10.9995C10.7314 11.1475 10.7314 11.3833 10.8794 11.5312C10.9512 11.603 11.0478 11.6411 11.1445 11.6411C11.2397 11.6411 11.3364 11.603 11.4082 11.5312L12.4687 10.4707C12.6167 10.3228 12.6167 10.0869 12.4687 9.93896C12.3955 9.86572 12.3003 9.8291 12.2051 9.83057ZM2.4785 17.5518L4.46043 17.9473L4.67576 19.0298C4.70652 19.1777 4.82225 19.2935 4.97019 19.3228L6.05125 19.5396L6.45115 21.5405L3.59764 21.75L2.24998 20.4038L2.4785 17.5518Z" fill="#26E07F"/>
</svg>
