<svg width="22" height="22" viewBox="0 0 22 22" fill="none" xmlns="http://www.w3.org/2000/svg">
<path d="M9.65625 1.375C9.08826 1.375 8.625 1.83826 8.625 2.40625V9.28125C8.625 9.47058 8.47058 9.625 8.28125 9.625H1.40625C0.838257 9.625 0.375 10.0883 0.375 10.6562V19.5938C0.375 20.1617 0.838257 20.625 1.40625 20.625H18.5938C19.1617 20.625 19.625 20.1617 19.625 19.5938V2.40625C19.625 1.83826 19.1617 1.375 18.5938 1.375H9.65625ZM9.65625 2.0625H18.5938C18.7831 2.0625 18.9375 2.21692 18.9375 2.40625V19.5938C18.9375 19.7831 18.7831 19.9375 18.5938 19.9375H1.40625C1.21692 19.9375 1.0625 19.7831 1.0625 19.5938V10.6562C1.0625 10.4669 1.21692 10.3125 1.40625 10.3125H8.28125C8.84924 10.3125 9.3125 9.84924 9.3125 9.28125V2.40625C9.3125 2.21692 9.46692 2.0625 9.65625 2.0625ZM17.2188 2.75C17.0281 2.75 16.875 2.90308 16.875 3.09375C16.875 3.28442 17.0281 3.4375 17.2188 3.4375H17.9062C18.0969 3.4375 18.25 3.28442 18.25 3.09375C18.25 2.90308 18.0969 2.75 17.9062 2.75H17.2188ZM17.2188 4.46875C17.0281 4.46875 16.875 4.62183 16.875 4.8125C16.875 5.00317 17.0281 5.15625 17.2188 5.15625H17.9062C18.0969 5.15625 18.25 5.00317 18.25 4.8125C18.25 4.62183 18.0969 4.46875 17.9062 4.46875H17.2188ZM17.2188 6.1875C17.0281 6.1875 16.875 6.34058 16.875 6.53125C16.875 6.72192 17.0281 6.875 17.2188 6.875H17.9062C18.0969 6.875 18.25 6.72192 18.25 6.53125C18.25 6.34058 18.0969 6.1875 17.9062 6.1875H17.2188ZM13.7812 6.875C13.5906 6.875 13.4375 7.02808 13.4375 7.21875V8.59375C13.4375 8.78442 13.5906 8.9375 13.7812 8.9375C13.9719 8.9375 14.125 8.78442 14.125 8.59375V7.21875C14.125 7.02808 13.9719 6.875 13.7812 6.875ZM17.2188 7.90625C17.0281 7.90625 16.875 8.05933 16.875 8.25C16.875 8.44067 17.0281 8.59375 17.2188 8.59375H17.9062C18.0969 8.59375 18.25 8.44067 18.25 8.25C18.25 8.05933 18.0969 7.90625 17.9062 7.90625H17.2188ZM13.7812 9.625C13.5906 9.625 13.4375 9.77808 13.4375 9.96875V13.4062C13.4375 14.3542 12.6667 15.125 11.7188 15.125H6.01733L7.49304 13.6493C7.62732 13.515 7.62732 13.2975 7.49304 13.1632C7.35876 13.0289 7.14124 13.0289 7.00696 13.1632L4.9458 15.2257C4.91357 15.2579 4.88806 15.2955 4.87061 15.3372C4.83569 15.4204 4.83569 15.5171 4.87061 15.6003C4.88806 15.642 4.91357 15.6796 4.9458 15.7118L7.00696 17.7743C7.0741 17.8414 7.16138 17.875 7.25 17.875C7.33862 17.875 7.4259 17.8414 7.49304 17.7743C7.62732 17.64 7.62732 17.4225 7.49304 17.2882L6.01733 15.8125H11.7188C13.0454 15.8125 14.125 14.7329 14.125 13.4062V9.96875C14.125 9.77808 13.9719 9.625 13.7812 9.625ZM17.2188 9.625C17.0281 9.625 16.875 9.77808 16.875 9.96875C16.875 10.1594 17.0281 10.3125 17.2188 10.3125H17.9062C18.0969 10.3125 18.25 10.1594 18.25 9.96875C18.25 9.77808 18.0969 9.625 17.9062 9.625H17.2188ZM17.2188 11.3438C17.0281 11.3438 16.875 11.4968 16.875 11.6875C16.875 11.8782 17.0281 12.0312 17.2188 12.0312H17.9062C18.0969 12.0312 18.25 11.8782 18.25 11.6875C18.25 11.4968 18.0969 11.3438 17.9062 11.3438H17.2188ZM17.2188 13.0625C17.0281 13.0625 16.875 13.2156 16.875 13.4062C16.875 13.5969 17.0281 13.75 17.2188 13.75H17.9062C18.0969 13.75 18.25 13.5969 18.25 13.4062C18.25 13.2156 18.0969 13.0625 17.9062 13.0625H17.2188ZM17.2188 14.7812C17.0281 14.7812 16.875 14.9343 16.875 15.125C16.875 15.3157 17.0281 15.4688 17.2188 15.4688H17.9062C18.0969 15.4688 18.25 15.3157 18.25 15.125C18.25 14.9343 18.0969 14.7812 17.9062 14.7812H17.2188ZM17.2188 16.5C17.0281 16.5 16.875 16.6531 16.875 16.8438C16.875 17.0344 17.0281 17.1875 17.2188 17.1875H17.9062C18.0969 17.1875 18.25 17.0344 18.25 16.8438C18.25 16.6531 18.0969 16.5 17.9062 16.5H17.2188ZM17.2188 18.2188C17.0281 18.2188 16.875 18.3718 16.875 18.5625C16.875 18.7532 17.0281 18.9062 17.2188 18.9062H17.9062C18.0969 18.9062 18.25 18.7532 18.25 18.5625C18.25 18.3718 18.0969 18.2188 17.9062 18.2188H17.2188Z" fill="#053B06"/>
</svg>
